<?xml version="1.0" encoding="UTF-8" standalone="no"?>
<!-- Created with Inkscape (http://www.inkscape.org/) -->

<svg
   version="1.1"
   id="svg2"
   xml:space="preserve"
   width="3280"
   height="3280"
   viewBox="0 0 3280 3280"
   sodipodi:docname="y2020-03-02-04.eps"
   xmlns:inkscape="http://www.inkscape.org/namespaces/inkscape"
   xmlns:sodipodi="http://sodipodi.sourceforge.net/DTD/sodipodi-0.dtd"
   xmlns="http://www.w3.org/2000/svg"
   xmlns:svg="http://www.w3.org/2000/svg"><defs
     id="defs6" /><sodipodi:namedview
     id="namedview4"
     pagecolor="#ffffff"
     bordercolor="#666666"
     borderopacity="1.0"
     inkscape:pageshadow="2"
     inkscape:pageopacity="0.0"
     inkscape:pagecheckerboard="0" /><g
     id="g8"
     inkscape:groupmode="layer"
     inkscape:label="ink_ext_XXXXXX"
     transform="matrix(1.3333333,0,0,-1.3333333,0,3280)"><g
       id="g10"
       transform="scale(0.1)"><path
         d="M 24600,0 H 0 V 24600 H 24600 V 0"
         style="fill:#ffffff;fill-opacity:1;fill-rule:nonzero;stroke:none"
         id="path12" /><path
         d="m 16886.1,15681.6 c -7.3,-327.6 -49.9,-605.3 -126.5,-825.4 -164.7,-473.1 -419.3,-952.9 -858,-1391.5 -2601.6,-2601.6 -4701.4,-2501.8 -7203.21,0 -438.68,438.7 -693.25,918.5 -857.95,1391.5 -76.65,220.1 -119.2,497.8 -126.48,825.4 -7.55,338.6 22.59,735.5 89.58,1179.8 174.86,1159.3 569.89,2443.5 870.47,3316.7 183.7,533.6 363.79,1091.4 442.44,1290 l 6322.05,0.1 c 78.6,-198.7 303.8,-756.5 487.5,-1290.1 300.6,-873.1 695.5,-2157.2 870.4,-3316.8 67,-444.2 97.2,-841.1 89.7,-1179.7 z m 114.1,1210.5 c -174.7,1158.1 -562.6,2433 -879.4,3353.1 -264.1,767.2 -478.7,1287.7 -478.7,1287.7 -53.4,0 -106.7,0 -160.1,0 -46.8,0 -93.6,0 -140.4,0 -59.9,0 -119.7,0 -179.6,0 -145.9,0 -291.9,0 -437.7,0 -340.1,0 -680.1,0 -1020.1,0 -470.4,0 -940.9,0 -1411.3,0 -384.2,0 -768.4,0 -1152.7,0 -433.5,0 -866.9,0 -1300.41,0 -83.75,0 -167.51,0 -251.27,0 -74.04,0 -148.06,0 -222.08,0 -92.74,0 -185.5,0 -278.27,0 -43.4,0 -86.83,0 -130.25,0 0,0 -214.58,-520.5 -478.73,-1287.7 -316.71,-920 -704.7,-2195 -879.4,-3353.1 -64.68,-429.1 -100.13,-842.1 -91.83,-1215.1 7.43,-334 49.92,-635.9 137.9,-888.5 189.86,-545.4 514.41,-1029.4 898.67,-1460.8 665.74,-747.5 1510.67,-1337 2145.07,-1813.7 511.3,-384.3 885.8,-695.3 919.3,-956.6 0,-1.2 0.5,-2.3 1.3,-3.5 0.2,-0.3 0.6,-0.6 0.8,-0.8 2,-3.2 4.6,-6 6.7,-9.4 1.8,-2.2 72.9,-213.5 193.6,-488.9 15.5,-35.6 32.7,-70.5 45.8,-106.5 22.8,-61.3 44.4,-140.7 64.1,-239 122.1,-608.1 183.9,-1926.3 183.9,-3931 0,-467.5 -6.7,-865.5 -18.1,-1204.4 -37.9,-1136.4 -128.7,-1606.5 -200.4,-1813 -41.3,-118 -76,-149.9 -90.8,-171.5 -12.1,-17.2 -20.1,-29.3 -22.2,-63.7 -1418.2,-36.8 -2493.59,-214.3 -2493.59,-427.6 0,-239.4 1360.39,-433.7 3038.89,-433.7 1678.4,0 3038.9,194.3 3038.9,433.7 0,215.1 -1094.2,393.9 -2530.5,428.5 -2.2,33.7 -10.3,45.8 -22.1,62.8 -15.3,21.6 -48,53.5 -85.9,172 -67.3,207 -150.8,677.2 -185.6,1814.6 -10.6,337.8 -16.9,735.3 -16.9,1202.3 0,2005.7 47.2,3323.4 164.5,3932 18.7,97.8 39.5,177.7 62.6,238.4 13.3,36.1 29.7,71.6 45.7,107.1 120.5,274.9 191.8,488.8 193.3,491.4 2.7,3.6 5.3,7.1 7.9,10.7 0.2,0 0.4,0.1 0.5,0.1 33.5,261.3 407.8,571.7 919.1,956 634.4,476.7 1479.4,1066.2 2145.1,1813.6 384.3,431.5 708.8,915.5 898.7,1460.9 87.9,252.6 130.4,554.5 137.9,888.5 8.2,373 -27.2,786 -91.9,1215.1"
         style="fill:#231f20;fill-opacity:1;fill-rule:nonzero;stroke:none"
         id="path14" /><path
         d="m 8029.39,16649.1 c -51.68,-376 -74.71,-712.7 -68.26,-1001.9 6.57,-295.2 43.36,-541 109.37,-730.6 176.11,-505.8 432.75,-922.7 784.61,-1274.6 1244.09,-1244 2317.99,-1823.4 3379.79,-1823.4 v 0 c 527.6,0 1053,143.1 1606.1,437.6 567.8,302.4 1150.1,755.7 1780.3,1385.8 351.9,351.9 608.5,768.8 784.6,1274.6 66,189.6 102.8,435.4 109.4,730.6 7.1,321 -21.9,700.1 -86.3,1126.8 -33.4,221.9 -75.3,448.8 -123.1,676.5 -4450.7,193.5 -4790.6,-3824.1 -8276.51,-801.4"
         style="fill:#231f20;fill-opacity:1;fill-rule:nonzero;stroke:none"
         id="path16" /></g></g></svg>
